<svg id="Layer_1" data-name="Layer 1" xmlns="http://www.w3.org/2000/svg" viewBox="0 0 345.06 296"><title>tri</title><path d="M529.2,279.26l51.85,89.45,82.29,142,18.86,32.56a1.51,1.51,0,0,0,2.6-1.52L633,452.29l-82.29-142L531.8,277.74a1.51,1.51,0,0,0-2.6,1.52Z" transform="translate(-528.95 -248)"/><path d="M871.2,277.74l-51.69,89.78L737.85,509.35,719.2,541.74a1.51,1.51,0,0,0,2.6,1.52l51.69-89.78,81.66-141.83,18.65-32.39a1.51,1.51,0,0,0-2.6-1.52Z" transform="translate(-528.95 -248)"/><path d="M855.4,248H549.6a1.5,1.5,0,0,0,0,3H855.4a1.5,1.5,0,0,0,0-3Z" transform="translate(-528.95 -248)"/><path d="M854.2,250.26l17,29a1.51,1.51,0,0,0,2.6-1.52l-17-29a1.51,1.51,0,0,0-2.6,1.52Z" transform="translate(-528.95 -248)"/><path d="M720.5,541h-37a1.5,1.5,0,0,0,0,3h37a1.5,1.5,0,0,0,0-3Z" transform="translate(-528.95 -248)"/><path d="M548.2,248.74l-19,29c-1.06,1.62,1.54,3.13,2.6,1.52l19-29c1.06-1.62-1.54-3.13-2.6-1.52Z" transform="translate(-528.95 -248)"/><path d="M799.5,277h-269a1.5,1.5,0,0,0,0,3h269a1.5,1.5,0,0,0,0-3Z" transform="translate(-528.95 -248)"/><path d="M721.8,485.26l45.71-79.58,72.74-126.63,16.55-28.79a1.51,1.51,0,0,0-2.6-1.52l-45.71,79.58L735.75,455,719.2,483.74a1.51,1.51,0,0,0,2.6,1.52Z" transform="translate(-528.95 -248)"/><path d="M721.8,541.74l-45.72-79.57L603.34,335.54l-16.54-28.8a1.51,1.51,0,0,0-2.6,1.52l45.72,79.57,72.74,126.63,16.54,28.8a1.51,1.51,0,0,0,2.6-1.52Z" transform="translate(-528.95 -248)"/><path d="M782.5,306H585.6a1.5,1.5,0,0,0,0,3H782.5a1.5,1.5,0,0,0,0-3Z" transform="translate(-528.95 -248)"/><path d="M701.8,450.26l33.5-57.88,53.17-91.84,12.33-21.28a1.51,1.51,0,0,0-2.6-1.52l-33.5,57.88-53.17,91.84L699.2,448.74a1.51,1.51,0,0,0,2.6,1.52Z" transform="translate(-528.95 -248)"/><path d="M721.8,483.74l-34.57-60-54.81-95.1L619.8,306.74a1.5,1.5,0,0,0-2.59,1.52l34.57,60,54.8,95.11,12.62,21.91a1.51,1.51,0,0,0,2.6-1.52Z" transform="translate(-528.95 -248)"/></svg>